<!DOCTYPE svg PUBLIC "-//W3C//DTD SVG 1.1//EN" "http://www.w3.org/Graphics/SVG/1.1/DTD/svg11.dtd">
<svg version="1.1" id="Layer_1" xmlns="http://www.w3.org/2000/svg" xmlns:xlink="http://www.w3.org/1999/xlink" x="0px" y="0px"
	 viewBox="0 0 150 27" style="enable-background:new 0 0 150 27;" xml:space="preserve">
<style type="text/css">
	.st0{fill:#4A4A4A;}
	.st1{fill:#F78119;}
</style>
<path class="st0" d="M37,4.4c-1.7,0-3.3,0.2-4.5,0.3v17.1c0.9,0.1,2.2,0.2,3.8,0.2c3,0,5.5-0.7,7-2.1c1.3-1.2,2.6-3.4,2.6-7.1
	c0-3.1-1-5.3-2.6-6.7C41.8,5.1,39.8,4.4,37,4.4z M37,19.5c-0.5,0-1,0-1.3,0V7.2C36.1,7.1,36.7,7,37.3,7c3.1,0,5,2,5,5.8
	C42.3,17.5,40.2,19.5,37,19.5z M53.3,9.1c-3.7,0-5.8,3.1-5.8,6.8c0,3.9,2.2,6.4,6.1,6.4c1.5,0,3-0.2,4-0.7l-0.5-2.3
	c-0.8,0.3-1.8,0.5-3,0.5c-1.8,0-3.3-0.9-3.5-3h7.5c0-0.4,0.1-0.9,0.1-1.4C58.3,11.2,56.3,9.1,53.3,9.1z M50.8,14.4
	c0.1-1.2,0.8-2.9,2.3-2.9c1.7,0,2.2,1.6,2.2,2.9H50.8z M67.7,9.4l-1.6,6.1c-0.2,1.1-0.5,2.1-0.7,3.2h-0.1c-0.2-1.1-0.4-2.1-0.7-3.2
	L63,9.4h-3.6L63.7,22h3.2l4.3-12.6H67.7z M1.7,21c-0.6,0.8-1.1,1.5-1.5,2.1c-0.1,0.1-0.2,0.6-0.2,1v0.5C0,25.4,0.6,26,1.5,26h22.1
	c0.8,0,1.5-0.6,1.5-1.5v-17C12.9,9.7,5.6,16.2,1.7,21z"/>
<path class="st1" d="M76.4,14.3h5.7v-2.7h-5.7V7.4h6V4.6h-9.3V22h9.7v-2.8h-6.4V14.3z M95.4,9.4h-3.6l-1.2,2.2
	c-0.3,0.6-0.6,1.4-0.9,2h-0.1c-0.3-0.6-0.6-1.3-0.9-2l-1.2-2.3h-3.7l3.8,6.2l-3.8,6.4h3.6l1.2-2.5c0.3-0.6,0.7-1.3,0.9-2h0.1
	c0.3,0.7,0.6,1.4,0.9,2l1.2,2.5h3.8l-3.8-6.5L95.4,9.4z M103.9,9.1c-1.7,0-2.9,0.7-3.8,2h-0.1l-0.2-1.7H97c0.1,1.1,0.1,2.5,0.1,4.1
	V27h3.3v-6.2h0.1c0.6,0.9,1.6,1.5,3,1.5c2.6,0,5.2-2,5.2-6.6C108.7,11.7,106.7,9.1,103.9,9.1z M102.8,19.6c-1.2,0-2.2-0.9-2.2-2.7
	v-2.4c0-1.5,1-2.8,2.3-2.8c1.7,0,2.5,1.6,2.5,3.9C105.3,17.9,104.4,19.6,102.8,19.6z M114.1,11.6L114.1,11.6l-0.2-2.2H111
	c0.1,1.1,0.1,2.4,0.1,3.9V22h3.3v-6.5c0-2.1,1.2-3.1,2.7-3.1c0.3,0,0.6,0,0.8,0.1V9.2c-0.2-0.1-0.4-0.1-0.8-0.1
	C116,9.1,114.7,9.9,114.1,11.6z M124.9,9.1c-3.7,0-5.8,3.1-5.8,6.8c0,3.9,2.2,6.4,6.1,6.4c1.6,0,3.1-0.2,4.1-0.7l-0.5-2.3
	c-0.8,0.3-1.8,0.5-3.1,0.5c-1.8,0-3.3-0.9-3.4-3h7.6c0.1-0.4,0.1-0.9,0.1-1.4C129.9,11.2,127.9,9.1,124.9,9.1z M122.3,14.4
	c0.1-1.2,0.8-2.9,2.3-2.9c1.7,0,2.2,1.6,2.2,2.9H122.3z M136.9,14.4c-1.4-0.6-1.9-0.9-1.9-1.6s0.6-1.2,1.6-1.2
	c0.9,0,1.9,0.4,2.4,0.6l0.6-2.3c-0.7-0.4-1.9-0.7-3.1-0.7c-2.8,0-4.6,1.7-4.6,4c0,1.4,0.9,2.7,3.2,3.7c1.4,0.6,1.8,1,1.8,1.8
	s-0.6,1.2-1.8,1.2c-1.1,0-2.3-0.5-2.9-0.9l-0.6,2.4c0.9,0.5,2.1,0.9,3.6,0.9c3.1,0,4.9-1.6,4.9-4C140,16.5,139,15.2,136.9,14.4z
	 M146.9,14.4c-1.4-0.6-1.9-0.9-1.9-1.6s0.6-1.2,1.6-1.2c0.9,0,1.9,0.4,2.4,0.6l0.6-2.3c-0.7-0.4-1.9-0.7-3.1-0.7
	c-2.8,0-4.6,1.7-4.6,4c0,1.4,0.9,2.7,3.2,3.7c1.4,0.6,1.8,1,1.8,1.8s-0.6,1.2-1.8,1.2c-1.1,0-2.3-0.5-2.9-0.9l-0.6,2.4
	c0.9,0.5,2.1,0.9,3.6,0.9c3.1,0,4.9-1.6,4.9-4C150,16.5,149,15.2,146.9,14.4z M23.5,1H1.5C0.6,1,0,1.6,0,2.5v13.2
	c4.4-4.6,12.1-9.6,24-11c0.3,0,1-0.2,1-1V2.5C25,1.6,24.4,1,23.5,1z"/>
</svg>
