<svg version="1.1" id="Layer_1" xmlns="http://www.w3.org/2000/svg" xmlns:xlink="http://www.w3.org/1999/xlink" x="0px" y="0px"
	 viewBox="0 0 120 20.2" style="enable-background:new 0 0 120 20.2;" xml:space="preserve">
<style type="text/css">
	.White{fill:#FFFFFF;}
</style>
<g>
	<path class="White" d="M33.5,4.1c-1.1-0.9-2.6-1.4-4.9-1.4c-1.3,0-2.5,0.1-3.5,0.3v13.1c0.7,0.1,1.7,0.2,2.9,0.2
		c2.3,0,4.2-0.5,5.4-1.6c1-0.9,2-2.6,2-5.5C35.6,6.8,34.8,5.2,33.5,4.1z M28.7,14.3c-0.4,0-0.7,0-1-0.1V4.9C28,4.8,28.4,4.8,29,4.8
		c2.4,0,3.9,1.5,3.9,4.5C32.8,12.8,31.2,14.3,28.7,14.3z M41.3,6.3c-2.9,0-4.5,2.4-4.5,5.2c0,3,1.7,4.9,4.7,4.9
		c1.2,0,2.3-0.2,3.2-0.6L44.4,14c-0.7,0.2-1.4,0.4-2.4,0.4c-1.4,0-2.6-0.7-2.7-2.3h5.8c0.1-0.3,0.1-0.6,0.1-1
		C45.2,8,43.7,6.3,41.3,6.3z M39.3,10.3c0.1-1,0.6-2.2,1.8-2.2c1.3,0,1.7,1.2,1.7,2.2H39.3z M55.2,6.5l-3.3,9.7h-2.5L46,6.5h2.8
		l1.3,4.7c0.2,0.8,0.4,1.6,0.5,2.5h0.1c0.2-0.8,0.3-1.6,0.5-2.5l1.2-4.7H55.2z M19.2,5.1v13c0,0.6-0.5,1.1-1.1,1.1h-17
		C0.5,19.1,0,18.7,0,18v-0.4c0-0.2,0.1-0.6,0.2-0.7c0.3-0.5,0.6-1,1.1-1.6C4.3,11.7,9.9,6.7,19.2,5.1z"/>
	<path class="White" d="M59.2,14h4.9v2.2h-7.5V2.8h7.3V5h-4.7v3.2h4.4v2.1h-4.4V14z M74,6.5h-2.8l-0.9,1.7c-0.2,0.5-0.5,1-0.7,1.5h0
		c-0.2-0.5-0.5-1-0.8-1.5l-0.9-1.8h-2.9l2.9,4.8l-3,4.9h2.8l0.9-1.9c0.2-0.5,0.5-1,0.7-1.5h0c0.2,0.5,0.5,1,0.7,1.5l1,1.9H74l-2.9-5
		L74,6.5z M84.3,11.3c0,3.6-2,5.1-4,5.1c-1.1,0-1.9-0.5-2.3-1.1h0v4.8h-2.6V9.7c0-1.3,0-2.3-0.1-3.2h2.3l0.1,1.3h0
		c0.6-1,1.6-1.5,2.9-1.5C82.7,6.3,84.3,8.3,84.3,11.3z M81.6,11.4c0-1.7-0.7-3-1.9-3c-1,0-1.8,0.9-1.8,2.1v1.8
		c0,1.4,0.9,2.1,1.7,2.1C81,14.4,81.6,13.1,81.6,11.4z M88.4,8.2L88.4,8.2l-0.2-1.7H86c0,0.9,0.1,1.8,0.1,3v6.7h2.6v-5
		c0-1.7,0.9-2.4,2.1-2.4c0.3,0,0.5,0,0.7,0.1V6.4c-0.2,0-0.3-0.1-0.6-0.1C89.9,6.3,88.9,7,88.4,8.2z M100.7,11.1c0,0.4,0,0.7-0.1,1
		h-5.8c0.1,1.7,1.3,2.3,2.7,2.3c1,0,1.7-0.2,2.4-0.4l0.4,1.8c-0.8,0.3-1.9,0.6-3.2,0.6c-3,0-4.7-1.9-4.7-4.9c0-2.8,1.6-5.2,4.5-5.2
		C99.2,6.3,100.7,8,100.7,11.1z M98.3,10.3c0-1-0.4-2.2-1.7-2.2c-1.2,0-1.8,1.3-1.8,2.2H98.3z M106.1,10.4c-1.1-0.5-1.5-0.7-1.5-1.3
		c0-0.5,0.4-0.9,1.2-0.9c0.7,0,1.4,0.3,1.8,0.5l0.5-1.8c-0.6-0.3-1.4-0.5-2.4-0.5c-2.2,0-3.6,1.3-3.6,3.1c0,1.1,0.7,2.1,2.5,2.8
		c1.1,0.5,1.4,0.8,1.4,1.4c0,0.6-0.4,1-1.3,1c-0.8,0-1.8-0.3-2.3-0.6l-0.5,1.9c0.6,0.4,1.7,0.6,2.8,0.6c2.4,0,3.8-1.2,3.8-3.1
		C108.5,12,107.8,11,106.1,10.4z M113.9,10.4c-1.1-0.5-1.5-0.7-1.5-1.3c0-0.5,0.4-0.9,1.2-0.9c0.7,0,1.4,0.3,1.8,0.5l0.5-1.8
		c-0.6-0.3-1.4-0.5-2.4-0.5c-2.2,0-3.6,1.3-3.6,3.1c0,1.1,0.7,2.1,2.5,2.8c1.1,0.5,1.4,0.8,1.4,1.4c0,0.6-0.4,1-1.3,1
		c-0.8,0-1.8-0.3-2.3-0.6l-0.5,1.9c0.6,0.4,1.7,0.6,2.8,0.6c2.4,0,3.8-1.2,3.8-3.1C116.3,12,115.5,11,113.9,10.4z M18.1,0.1h-17
		C0.5,0.1,0,0.6,0,1.2v10.1c3.4-3.5,9.4-7.3,18.5-8.4c0.2,0,0.7-0.1,0.7-0.8V1.2C19.2,0.6,18.7,0.1,18.1,0.1z M119.1,6.2l0.2,0.5
		h-0.4l-0.2-0.4c-0.1-0.2-0.1-0.3-0.3-0.3h-0.2v0.7h-0.3V5h0.6c0.2,0,0.4,0,0.5,0.1c0.1,0.1,0.2,0.2,0.2,0.4c0,0.2-0.1,0.4-0.4,0.5
		v0C118.9,6,119,6.1,119.1,6.2z M118.8,5.7c0.1,0,0.1-0.1,0.1-0.2c0-0.2-0.1-0.3-0.3-0.3h-0.2v0.5h0.2
		C118.6,5.8,118.7,5.8,118.8,5.7z M120,5.9c0,0.4-0.1,0.7-0.4,1c-0.3,0.3-0.6,0.4-1,0.4c-0.4,0-0.8-0.1-1-0.4
		c-0.3-0.3-0.4-0.6-0.4-1c0-0.4,0.1-0.7,0.4-1c0.3-0.3,0.6-0.4,1-0.4c0.4,0,0.8,0.1,1,0.4C119.9,5.1,120,5.5,120,5.9z M119.8,5.9
		c0-0.3-0.1-0.6-0.4-0.9c-0.2-0.2-0.5-0.3-0.9-0.3c-0.4,0-0.6,0.1-0.9,0.3c-0.2,0.2-0.3,0.5-0.3,0.9c0,0.3,0.1,0.6,0.4,0.9
		c0.2,0.2,0.5,0.3,0.9,0.3c0.3,0,0.6-0.1,0.9-0.3C119.7,6.5,119.8,6.2,119.8,5.9z"/>
</g>
</svg>
