<?xml version="1.0" encoding="UTF-8" standalone="no"?>
<svg
   xmlns:dc="http://purl.org/dc/elements/1.1/"
   xmlns:cc="http://creativecommons.org/ns#"
   xmlns:rdf="http://www.w3.org/1999/02/22-rdf-syntax-ns#"
   xmlns:svg="http://www.w3.org/2000/svg"
   xmlns="http://www.w3.org/2000/svg"
   viewBox="0 0 391.06668 65.706665"
   height="65.706665"
   width="391.06668"
   xml:space="preserve"
   id="svg2"
   version="1.1"><metadata
     id="metadata8"><rdf:RDF><cc:Work
         rdf:about=""><dc:format>image/svg+xml</dc:format><dc:type
           rdf:resource="http://purl.org/dc/dcmitype/StillImage" /><dc:title></dc:title></cc:Work></rdf:RDF></metadata><defs
     id="defs6" /><g
     transform="matrix(1.3333333,0,0,-1.3333333,0,65.706667)"
     id="g10"><g
       transform="scale(0.1)"
       id="g12"><path
         id="path14"
         style="fill:#ffffff;fill-opacity:1;fill-rule:nonzero;stroke:none"
         d="m 702.113,143.047 c -8.566,0 -17.992,0 -24.41,1.289 v 230.836 c 6.848,1.254 16.695,2.547 29.965,2.547 58.672,0 95.07,-36.824 95.07,-111.348 0,-86.508 -40.254,-123.754 -100.625,-123.324 z m -2.14,284.367 c -32.118,0 -62.09,-2.586 -85.227,-6.871 V 96.8164 C 631.449,94.6484 655.859,92.5 686.27,92.5 c 57.367,0 103.203,13.301 133.179,40.254 25.258,22.734 49.668,63.809 49.668,134.508 0,59.523 -18.41,100.203 -49.668,125.875 -27.402,22.687 -64.676,34.277 -119.476,34.277" /><path
         id="path16"
         style="fill:#ffffff;fill-opacity:1;fill-rule:nonzero;stroke:none"
         d="m 961.363,239.848 c 1.711,23.547 14.567,55.234 44.967,55.234 31.26,0 41.12,-30.398 40.69,-55.234 z m 48.817,99.332 c -69.785,0 -109.196,-59.106 -109.196,-127.617 0,-74.063 41.969,-120.3325 115.636,-120.3325 29.55,0 57.37,5.1758 77.08,13.6915 l -9,43.711 c -16.27,-5.586 -34.68,-9.863 -58.23,-9.863 -34.263,0 -63.396,16.269 -65.107,56.953 h 142.597 c 1.3,6.836 1.73,15.84 1.73,25.254 0,77.105 -37.69,118.203 -95.51,118.203" /><path
         id="path18"
         style="fill:#ffffff;fill-opacity:1;fill-rule:nonzero;stroke:none"
         d="m 1282.67,334.055 -29.96,-115.617 c -5.16,-21.016 -9.44,-40.274 -13.3,-60.801 h -1.26 c -3.85,20.527 -8.15,40.215 -13.29,60.801 l -31.26,115.617 h -68.09 L 1205.6,95.5078 h 61.23 l 81.37,238.5472 h -65.53" /><path
         id="path20"
         style="fill:#ffffff;fill-opacity:1;fill-rule:nonzero;stroke:none"
         d="M 32.4023,117.383 C 20.3828,102.441 11.4453,89.1992 4.63672,76.7969 2.95313,73.7891 0,64.8242 0,58.8477 V 50.1172 C 0,35.2344 12.1758,23.0273 27.0898,23.0273 H 442.703 c 14.899,0 27.067,12.2071 27.067,27.0899 V 369.895 C 242.012,329.734 103.98,206.406 32.4023,117.383" /><path
         id="path22"
         style="fill:#ffffff;fill-opacity:1;fill-rule:nonzero;stroke:none"
         d="m 1448.08,240.277 h 107.54 v 51.797 h -107.54 v 79.649 h 113.96 v 53.105 H 1384.72 V 95.5078 h 184.16 v 53.1252 h -120.8 v 91.644" /><path
         id="path24"
         style="fill:#ffffff;fill-opacity:1;fill-rule:nonzero;stroke:none"
         d="m 1808.38,334.055 h -67.25 l -21.43,-42.821 c -6,-12.429 -11.53,-25.281 -17.52,-38.105 h -0.88 c -6.01,11.953 -11.53,24.414 -18.4,37.676 l -22.68,43.25 H 1590 L 1660.64,216.27 1588.25,95.5078 h 67.65 l 22.29,46.2502 c 5.98,12.441 11.99,24.883 17.56,37.695 h 0.88 c 6,-12.812 11.54,-25.254 17.95,-37.695 l 23.54,-46.2502 h 71.12 l -71.95,123.3592 71.09,115.188" /><path
         id="path26"
         style="fill:#ffffff;fill-opacity:1;fill-rule:nonzero;stroke:none"
         d="m 1946.83,140.508 c -21.42,0 -42.41,16.66 -42.41,51.367 v 44.551 c 0,28.656 19.28,51.812 43.7,51.812 31.24,0 47.51,-30.851 47.51,-73.258 0,-42.812 -16.7,-74.472 -48.8,-74.472 z m 22.26,198.672 c -30.85,0 -55.25,-13.285 -70.66,-37.672 h -0.88 l -2.99,32.547 h -55.25 c 0.87,-21.848 1.74,-47.098 1.74,-77.965 V 0 h 63.37 v 118.633 h 0.87 c 10.26,-15.801 30.41,-27.8322 56.49,-27.8322 48.4,0 98.07,38.5352 98.07,126.3472 0,73.219 -38.52,122.032 -90.76,122.032" /><path
         id="path28"
         style="fill:#ffffff;fill-opacity:1;fill-rule:nonzero;stroke:none"
         d="m 2161.52,292.496 h -1.75 l -2.54,41.559 h -54.4 c 0.86,-21.395 1.71,-44.977 1.71,-74.52 V 95.5078 h 63.4 V 218.867 c 0,40.668 21.8,59.938 50.5,59.938 6.47,0 11.6,-0.422 16.31,-1.262 v 60.367 c -4.29,0.86 -8.18,1.27 -14.15,1.27 -22.27,0 -47.94,-15.821 -59.08,-46.684" /><path
         id="path30"
         style="fill:#ffffff;fill-opacity:1;fill-rule:nonzero;stroke:none"
         d="m 2317.45,239.848 c 1.75,23.547 14.58,55.234 44.98,55.234 31.26,0 41.12,-30.398 40.7,-55.234 z m 48.83,99.332 c -69.8,0 -109.19,-59.106 -109.19,-127.617 0,-74.063 41.93,-120.3325 115.62,-120.3325 29.54,0 57.38,5.1758 77.1,13.6915 l -9,43.711 c -16.27,-5.586 -34.69,-9.863 -58.23,-9.863 -34.27,0 -63.38,16.269 -65.13,56.953 h 142.63 c 1.26,6.836 1.72,15.84 1.72,25.254 0,77.105 -37.73,118.203 -95.52,118.203" /><path
         id="path32"
         style="fill:#ffffff;fill-opacity:1;fill-rule:nonzero;stroke:none"
         d="m 2593.38,239.391 c -27.41,11.582 -36.39,18.445 -36.39,31.687 0,12.883 10.27,22.707 29.5,22.707 18,0 34.73,-6.828 44.99,-12.402 l 12.01,44.512 c -13.71,7.293 -34.67,13.285 -59.09,13.285 -53.12,0 -87.36,-32.524 -87.36,-75.348 0,-26.156 16.23,-51.391 60.8,-69.379 26.12,-11.133 34.25,-18.828 34.25,-33.398 0,-14.59 -10.66,-24.004 -32.99,-24.004 -19.66,0 -43.25,8.574 -55.65,15.879 l -11.99,-45.84 c 15.82,-9.4533 41.14,-15.8595 67.22,-15.8595 59.56,0 93.79,29.9995 93.79,75.4105 0,32.929 -18.84,56.093 -59.09,72.75" /><path
         id="path34"
         style="fill:#ffffff;fill-opacity:1;fill-rule:nonzero;stroke:none"
         d="m 2783.2,239.391 c -27.41,11.582 -36.36,18.445 -36.36,31.687 0,12.883 10.25,22.707 29.52,22.707 17.96,0 34.7,-6.828 44.95,-12.402 l 12.02,44.512 c -13.71,7.293 -34.7,13.285 -59.08,13.285 -53.15,0 -87.39,-32.524 -87.39,-75.348 0,-26.156 16.24,-51.391 60.81,-69.379 26.1,-11.133 34.24,-18.828 34.24,-33.398 0,-14.59 -10.67,-24.004 -32.98,-24.004 -19.67,0 -43.26,8.574 -55.66,15.879 l -11.98,-45.84 c 15.81,-9.4533 41.14,-15.8595 67.23,-15.8595 59.53,0 93.77,29.9995 93.77,75.4105 0,32.929 -18.81,56.093 -59.09,72.75" /><path
         id="path36"
         style="fill:#ffffff;fill-opacity:1;fill-rule:nonzero;stroke:none"
         d="M 442.703,492.797 H 27.0898 C 12.1758,492.797 0,480.617 0,465.676 V 216.543 c 82.2578,86.5 228.672,181 451.914,206.762 5.922,0.664 17.856,3.418 17.856,19.961 v 22.41 c 0,14.941 -12.168,27.121 -27.067,27.121" /><path
         id="path38"
         style="fill:#ffffff;fill-opacity:1;fill-rule:nonzero;stroke:none"
         d="m 2897.25,352.434 h -6.04 v 12.617 h 5 c 5.61,0 8.41,-2.071 8.41,-6.219 0,-1.93 -0.66,-3.477 -1.98,-4.648 -1.33,-1.164 -3.13,-1.75 -5.39,-1.75 z m 6.02,-4.391 v 0.184 c 7,1.75 10.51,5.605 10.51,11.589 0,3.832 -1.43,6.829 -4.3,8.989 -2.87,2.168 -7.04,3.25 -12.52,3.25 h -14.25 v -43.633 h 8.5 v 17.516 h 3.74 c 2.69,0 4.78,-2.165 6.31,-6.489 l 3.93,-11.027 h 10.13 l -5.23,12.422 c -1.71,4.082 -4,6.48 -6.82,7.199" /><path
         id="path40"
         style="fill:#ffffff;fill-opacity:1;fill-rule:nonzero;stroke:none"
         d="m 2918.66,328.59 c -5.8,-5.719 -12.85,-8.578 -21.14,-8.578 -8.38,0 -15.46,2.824 -21.25,8.48 -5.79,5.653 -8.69,12.746 -8.69,21.278 0,8.378 2.84,15.433 8.52,21.168 5.69,5.726 12.83,8.593 21.42,8.593 8.45,0 15.52,-2.84 21.26,-8.531 5.73,-5.68 8.59,-12.758 8.59,-21.23 0,-8.407 -2.89,-15.469 -8.71,-21.18 z m 4.2,46.082 c -6.77,6.543 -15.15,9.812 -25.15,9.812 -10.12,0 -18.62,-3.375 -25.48,-10.121 -6.87,-6.734 -10.31,-14.968 -10.31,-24.683 0,-10 3.39,-18.242 10.17,-24.739 6.77,-6.496 15.21,-9.742 25.33,-9.742 9.94,0 18.36,3.352 25.26,10.043 6.9,6.696 10.35,14.934 10.35,24.719 0,9.934 -3.39,18.176 -10.17,24.711" /></g></g></svg>