<?xml version="1.0" encoding="UTF-8"?>
<svg xmlns="http://www.w3.org/2000/svg" viewBox="0 0 20 20">
<style>
.Red {fill: #D11C1C;}
.Yellow {fill: #FFB115;}
.Green {fill: #039C23;}
.Blue {fill: #1177D7; }
.Black {fill: #727272;}
.White {fill: #FFFFFF;}
</style>
<title>CopyLink_20x20</title>
<path d="M6.2,13.8a.64.64,0,0,0,.93,0L13.8,7.13a.66.66,0,1,0-.93-.93L6.2,12.87A.64.64,0,0,0,6.2,13.8Z" class="Black"/>
<path d="M9.63,12.25a2,2,0,0,1-.38,2.18l-2.7,2.69a1.85,1.85,0,0,1-2.69,0l-.9-.9a1.85,1.85,0,0,1,0-2.69l2.7-2.7a2,2,0,0,1,2.18-.38l1-1a3.2,3.2,0,0,0-4,.38l-2.7,2.7a3.18,3.18,0,0,0,0,4.55L3,18a3.19,3.19,0,0,0,4.56,0l2.69-2.69a3.22,3.22,0,0,0,.39-4.05Z" class="Black"/>
<path d="M18,2.88l-.9-.9a3.19,3.19,0,0,0-4.56,0L9.89,4.67A3.22,3.22,0,0,0,9.5,8.72l1-1a2,2,0,0,1,.38-2.18l2.7-2.69a1.85,1.85,0,0,1,2.69,0l.9.9a1.85,1.85,0,0,1,0,2.69l-2.7,2.7a2,2,0,0,1-2.18.38l-1,1a3.2,3.2,0,0,0,4-.38L18,7.43A3.18,3.18,0,0,0,18,2.88Z" class="Black"/>
</svg>