<?xml version="1.0" encoding="UTF-8"?>
<svg xmlns="http://www.w3.org/2000/svg" viewBox="0 0 20 20">
<style>
.Red {fill: #D11C1C;}
.Yellow {fill: #FFB115;}
.Green {fill: #039C23;}
.Blue {fill: #1177D7; }
.Black {fill: #727272;}
.White {fill: #FFFFFF;}
</style>
<title>FullWindowView_20x20</title>
<polygon points="9 7 6.5 4.5 8 3 3 3 3 8 4.5 6.5 7 9 9 7" class="Blue"/>
<polygon points="13 9 15.5 6.5 17 8 17 3 12 3 13.5 4.5 11 7 13 9" class="Blue"/>
<polygon points="11 13 13.5 15.5 12 17 17 17 17 12 15.5 13.5 13 11 11 13" class="Blue"/>
<polygon points="7 11 4.5 13.5 3 12 3 17 8 17 6.5 15.5 9 13 7 11" class="Blue"/>
<path d="M18.1,1H1.9a.9.9,0,0,0-.9.9V18.1a.9.9,0,0,0,.9.9H18.1a.9.9,0,0,0,.9-.9V1.9A.9.9,0,0,0,18.1,1ZM18,18H2V2H18Z" class="Blue"/>
</svg>