<?xml version="1.0" encoding="UTF-8"?>
<svg xmlns="http://www.w3.org/2000/svg" viewBox="0 0 20 20">
<style>
.Red {fill: #D11C1C;}
.Yellow {fill: #FFB115;}
.Green {fill: #039C23;}
.Blue {fill: #1177D7; }
.Black {fill: #727272;}
.White {fill: #FFFFFF;}
</style>
<title>Support_20x20</title>
<ellipse cx="11" cy="8.5" rx="3" ry="2.7" class="Green"/>
<path d="M6.89,12.5a1.94,1.94,0,0,0,2.05,1.82,2,2,0,0,0,2-1.33,5.18,5.18,0,0,1-3.65-1.53A1.67,1.67,0,0,0,6.89,12.5Z" class="Green"/>
<path d="M10,1a9,9,0,1,0,9,9A9,9,0,0,0,10,1Zm6,7.5a4.54,4.54,0,0,1-3.13,4.17h0A3.76,3.76,0,0,1,8.94,16,4.14,4.14,0,0,1,5.8,14.6C4.14,15,4,16,4,16s-.4-2.42,1-3.47H5A3.33,3.33,0,0,1,6.28,9.93h0A4,4,0,0,1,6,8.5,4.77,4.77,0,0,1,11,4a5.24,5.24,0,0,1,3.49,1.29C15.86,4.83,16,4,16,4a4.9,4.9,0,0,1-.39,2.76A4.07,4.07,0,0,1,16,8.5Z" class="Green"/>
</svg>