<?xml version="1.0" encoding="UTF-8"?>
<svg xmlns="http://www.w3.org/2000/svg" viewBox="0 0 20 20">
<style>
.Red {fill: #D11C1C;}
.Yellow {fill: #FFB115;}
.Green {fill: #039C23;}
.Blue {fill: #1177D7; }
.Black {fill: #727272;}
.White {fill: #FFFFFF;}
</style>
<title>GetStarted_20x20</title>
<path d="M10,1a9,9,0,1,0,9,9A9,9,0,0,0,10,1ZM5.3,12.69H3.63V9.52H2.34V8.35h.15a1.71,1.71,0,0,0,1-.32A1.1,1.1,0,0,0,4,7.15H5.3Zm6.52,0H7V12.6a2.17,2.17,0,0,1,.1-.69,1.68,1.68,0,0,1,.3-.58,2.8,2.8,0,0,1,.43-.47c.15-.13.34-.27.55-.42A6.66,6.66,0,0,1,9,10.06l.5-.29.34-.22a.86.86,0,0,0,.23-.25A.68.68,0,0,0,10.12,9a.5.5,0,0,0-.19-.41.73.73,0,0,0-.48-.15.69.69,0,0,0-.64.28,1.53,1.53,0,0,0-.19.75H7.12V9.4a2.31,2.31,0,0,1,.61-1.72,2.48,2.48,0,0,1,1.78-.59,2.43,2.43,0,0,1,1.6.49,1.56,1.56,0,0,1,.6,1.28,1.82,1.82,0,0,1-.08.6,1.29,1.29,0,0,1-.28.48c-.14.14-.26.25-.38.35a5.36,5.36,0,0,1-.49.34L9.86,11a7.07,7.07,0,0,0-.67.42,11.68,11.68,0,0,1,1.23-.07h1.4Zm4.8-.54a2.22,2.22,0,0,1-.53.35,3,3,0,0,1-.64.2,3.82,3.82,0,0,1-.68.07A2.81,2.81,0,0,1,13,12.26a1.76,1.76,0,0,1-.68-1.51c0-.06,0-.11,0-.15h1.51v.08c0,.51.27.77.83.77a1,1,0,0,0,.58-.15.49.49,0,0,0,.21-.43c0-.39-.29-.58-.86-.58h-.35v-1H15a.59.59,0,0,0,.37-.14.37.37,0,0,0,.14-.31.41.41,0,0,0-.19-.36.89.89,0,0,0-.52-.13c-.49,0-.74.22-.75.67h-1.5a1.77,1.77,0,0,1,.65-1.42,2.5,2.5,0,0,1,1.6-.48,2.73,2.73,0,0,1,1.6.43A1.37,1.37,0,0,1,17,8.68a1.11,1.11,0,0,1-.21.69.89.89,0,0,1-.58.34,1.22,1.22,0,0,1,.71.42,1.25,1.25,0,0,1,.25.8,1.75,1.75,0,0,1-.13.7A1.53,1.53,0,0,1,16.62,12.15Z" class="Black"/>
</svg>