<svg id="Layer_2" data-name="Layer 2" xmlns="http://www.w3.org/2000/svg" viewBox="0 0 32 32">
  <defs>
    <style>
      .Red {
        fill: #d11c1c;
      }
    </style>
  </defs>
  <title>Hand No</title>
  <path class="Red" d="M29.05,16.9a2.79,2.79,0,0,1-1.37,4.21c-2.42,1-8-.84-8.29,0-.38,1.29,2.79,6.79,1,9.23-1.15,1.61-2,1.84-2.82,1.5s-.44-1.09-.58-2.75c-.19-2.17-2.85-6.76-5.85-10-1-1.09-1-1.69-2.24-2.57s2-12,3.89-12c1.21,0,6.61-.81,10.42-.49C29.41,4.6,28,8.73,28,8.73s2,.64,1.13,4.07C30.71,14.85,29.8,16.16,29.05,16.9ZM9.1,5.71a.87.87,0,0,0-.78-1.2C6,4.4,4.2,4.3,3.49,5c-2,2-1.8,9-.56,10.24.87.86,2.53.71,3.46.53a.84.84,0,0,0,.7-.81A26.88,26.88,0,0,1,9.1,5.71Z"/>
</svg>
