<svg version="1.1" id="Layer_1" xmlns="http://www.w3.org/2000/svg" xmlns:xlink="http://www.w3.org/1999/xlink" x="0px" y="0px"
	 viewBox="0 0 32 32" style="enable-background:new 0 0 32 32;" xml:space="preserve">
<style type="text/css">
	.Red{fill:#D11C1C;}
	.Blue{fill:#1177D7;}
	.Black{fill:#727272;}
	.st0{opacity:0.5;}
</style>
<path class="Black" d="M29,2H3C2.5,2,2,2.5,2,3v24c0,0.5,0.5,1,1,1h26c0.5,0,1-0.5,1-1V3C30,2.5,29.5,2,29,2z M28,26H4V8h24V26z"/>
<path class="Black" d="M20,10l-6.9,5.8L10,14l-2,2v4l2,2l3.4-2.4L20,24l4-2V12L20,10z M10,18.3v-1l0.7,0.4L10,18.3z M16.2,17.6
	l3.8-2.7v4.9L16.2,17.6z"/>
</svg>
