<svg xmlns="http://www.w3.org/2000/svg" viewBox="0 0 32 32">
	<title>visualbasic</title>
	<style type="text/css">
		.Black{fill:#727272;}
		.Green{fill:#039C23;}
		.Red{fill:#D11C1C;}
		.Blue{fill:#1177D7;}
		.Yellow{fill:#FFB115;}
		.White{fill:#FFFFFF;}
	</style>
	<circle class="Blue" cx="16" cy="16" r="15" style="fill:#21409a"/>
	<path class="White" d="M7,11H9.27l2.22,7,2.26-7H16L12.7,21H10.24Z" />
	<path class="White" d="M16,11h4.5a3.65,3.65,0,0,1,2.18.62,2.21,2.21,0,0,1,.84,1.89,2.18,2.18,0,0,1-1.29,2.07A2.29,2.29,0,0,1,24,18a2.75,2.75,0,0,1-.9,2.2,3.44,3.44,0,0,1-2.31.78H16Zm2,1.7V15h1.89c1,0,1.58-.38,1.58-1.16a1,1,0,0,0-.43-.93,2.25,2.25,0,0,0-1.15-.25Zm0,3.83v2.73h2.09A2.63,2.63,0,0,0,21.41,19a1.17,1.17,0,0,0,.47-1.08,1.11,1.11,0,0,0-.5-1.09A2.89,2.89,0,0,0,20,16.53Z" />
</svg>
