<svg id="Layer_2" data-name="Layer 2" xmlns="http://www.w3.org/2000/svg" viewBox="0 0 32 32">
  <defs>
    <style>
      .Green {
        fill: #039c23;
      }
    </style>
  </defs>
  <title>Hand Yes</title>
  <path class="Green" d="M29.13,19.2C30,22.63,28,23.27,28,23.27s1.41,4.13-4.75,4.65c-3.81.32-9.21-.49-10.42-.49-1.91,0-5.16-11.07-3.89-12S10.17,14,11.18,12.9c3-3.25,5.66-7.84,5.85-10,.14-1.66-.25-2.41.58-2.75s1.67-.11,2.82,1.5c1.75,2.44-1.42,7.94-1,9.23.26.86,5.87-1,8.29,0a2.79,2.79,0,0,1,1.37,4.21C29.8,15.84,30.71,17.15,29.13,19.2ZM7.09,17a.84.84,0,0,0-.7-.81c-.93-.18-2.59-.33-3.46.53C1.69,18,1.52,25,3.49,27c.71.71,2.46.61,4.83.5a.87.87,0,0,0,.78-1.2A26.88,26.88,0,0,1,7.09,17Z"/>
</svg>
