<!DOCTYPE svg PUBLIC "-//W3C//DTD SVG 1.1//EN" "http://www.w3.org/Graphics/SVG/1.1/DTD/svg11.dtd">
<svg version="1.1" id="Layer_2" xmlns="http://www.w3.org/2000/svg" xmlns:xlink="http://www.w3.org/1999/xlink" x="0px" y="0px"
	 viewBox="0 0 48 48" style="enable-background:new 0 0 48 48;" xml:space="preserve">
<style type="text/css">
	.st0{fill:#FFFFFF;}
</style>
<path class="st0" d="M24,0C10.7,0,0,10.7,0,24s10.7,24,24,24s24-10.7,24-24S37.3,0,24,0z M22.6,21.8l5.2-11.2c0.4-0.8,1.3-1.1,2-0.7
	c0.8,0.4,1.1,1.3,0.7,2.1l-5.2,11.2c-0.4,0.8-1.3,1.1-2,0.7C22.6,23.5,22.3,22.6,22.6,21.8z M38.2,21h-1.5l-3,14.2H14.2l-3-14.2H9.8
	v-3h12.2l-1.3,2.8c-0.9,1.9-0.1,4.1,1.7,5c0.5,0.3,1.1,0.4,1.6,0.4c1.4,0,2.8-0.9,3.4-2.2l2.9-6.1h8V21z"/>
</svg>
