<!DOCTYPE svg PUBLIC "-//W3C//DTD SVG 1.1//EN" "http://www.w3.org/Graphics/SVG/1.1/DTD/svg11.dtd">
<svg version="1.1" id="Layer_2" xmlns="http://www.w3.org/2000/svg" xmlns:xlink="http://www.w3.org/1999/xlink" x="0px" y="0px"
	 viewBox="0 0 48 48" style="enable-background:new 0 0 48 48;" xml:space="preserve">
<style type="text/css">
	.st0{fill:#FFFFFF;}
</style>
<path class="st0" d="M24,0C10.7,0,0,10.7,0,24s10.7,24,24,24s24-10.7,24-24S37.3,0,24,0z M14.8,31.5H8.7l-0.2-1.9
	c0.3-0.3,1.1-0.7,1.9-0.9v-10c-0.7-0.1-1.5-0.2-2.1-0.5v-1.7c1.5-0.6,3.6-1,5.4-0.8v0l0,0v13.1c0.5,0.2,1,0.5,1.3,0.8L14.8,31.5z
	 M28.3,31.5H17.8l-0.6-2.8l5.7-6.1c0.9-0.9,1.6-2.1,1.6-3.3c0-1.1-0.5-1.6-1.8-1.6c-0.6,0-1.4,0.1-1.9,0.3c-0.1,0.7-0.3,1.8-0.5,2.2
	l-2-0.1c-0.3-0.5-0.5-1.5-0.5-2.5c0-0.2,0-0.4,0-0.5c1.2-0.8,3.2-1.3,5.2-1.3c2.6,0,5,0.7,5,3.9c0,1.2-0.8,2.6-1.5,3.5l-3.3,3.9
	c-0.8,0.9-2.2,2-2.2,2l0.1,0.2c0,0,1.1-0.2,2.3-0.2h1.8c0.1-0.7,0.3-1.6,0.6-1.9l2.2,0.1C28.4,28.1,28.7,30.3,28.3,31.5z M34.6,31.5
	c-1.3,0-3.1-0.4-3.8-0.8l0.5-1.9c0.8,0.3,1.9,0.6,2.9,0.6c2,0,3.4-0.7,3.4-2.4c0-2.4-1.6-2.7-2.7-2.7c-0.8,0-1.6,0-2.1,0.1l-0.2-1.9
	l2.1-0.2c1.2-0.1,2.6-0.6,2.6-2.4c0-1.5-0.8-2.2-2.2-2.2c-0.2,0-0.6,0-0.8,0.1c-0.1,0.7-0.3,1.5-0.6,1.9l-2.1-0.1
	c-0.3-0.5-0.5-1.8-0.5-2.9c0,0,0-0.1,0-0.2c0.8-0.4,3-0.7,4.3-0.7c2.4,0,5.1,0.7,5.1,3.9c0,1.2-1,2.5-2.1,3.1V23
	c1.3,0.4,2.7,1.3,2.7,3.5C41.2,30,38.2,31.5,34.6,31.5z"/>
</svg>
