<?xml version="1.0" encoding="UTF-8" standalone="no"?>
<svg
   xmlns:dc="http://purl.org/dc/elements/1.1/"
   xmlns:cc="http://creativecommons.org/ns#"
   xmlns:rdf="http://www.w3.org/1999/02/22-rdf-syntax-ns#"
   xmlns:svg="http://www.w3.org/2000/svg"
   xmlns="http://www.w3.org/2000/svg"
   xmlns:sodipodi="http://sodipodi.sourceforge.net/DTD/sodipodi-0.dtd"
   xmlns:inkscape="http://www.inkscape.org/namespaces/inkscape"
   version="1.1"
   id="Layer_2"
   x="0px"
   y="0px"
   viewBox="0 0 48 48"
   style="enable-background:new 0 0 48 48;"
   xml:space="preserve"
   sodipodi:docname="SupportHover.svg"
   inkscape:version="0.92.2 (5c3e80d, 2017-08-06)"><metadata
     id="metadata15"><rdf:RDF><cc:Work
         rdf:about=""><dc:format>image/svg+xml</dc:format><dc:type
           rdf:resource="http://purl.org/dc/dcmitype/StillImage" /></cc:Work></rdf:RDF></metadata><defs
     id="defs13" /><sodipodi:namedview
     pagecolor="#ffffff"
     bordercolor="#666666"
     borderopacity="1"
     objecttolerance="10"
     gridtolerance="10"
     guidetolerance="10"
     inkscape:pageopacity="0"
     inkscape:pageshadow="2"
     inkscape:window-width="1920"
     inkscape:window-height="1017"
     id="namedview11"
     showgrid="false"
     inkscape:zoom="4.9166667"
     inkscape:cx="-9.0508473"
     inkscape:cy="24"
     inkscape:window-x="1592"
     inkscape:window-y="-8"
     inkscape:window-maximized="1"
     inkscape:current-layer="Layer_2" /><style
     type="text/css"
     id="style2">
	.st0{fill:#FFFFFF;}
</style><ellipse
     class="st0"
     cx="18.5"
     cy="28"
     rx="6.5"
     ry="5"
     id="ellipse4"
     style="fill:#ffa801;fill-opacity:1" /><path
     class="st0"
     d="M24,0C10.7,0,0,10.7,0,24s10.7,24,24,24s24-10.7,24-24S37.3,0,24,0z M27.3,31c-1.4,2.9-4.8,5-8.8,5  c-2.2,0-4.2-0.6-5.8-1.7L9,37l1.8-4.4C9.7,31.3,9,29.7,9,28c0-3.1,2-5.7,5-7.1c0-0.1,0-0.3,0-0.4C14,14.7,19.6,10,26.5,10  c1.9,0,3.7,0.4,5.3,1L36,8l-1.7,4.3c2.9,1.9,4.7,4.9,4.7,8.2C39,26.1,33.8,30.6,27.3,31z"
     id="path6"
     style="fill:#ffa801;fill-opacity:1" /><path
     class="st0"
     d="M26.5,13c-5.1,0-9.2,3.1-9.5,7.1c0.5-0.1,1-0.1,1.5-0.1c5.2,0,9.4,3.5,9.5,7.9c4.5-0.6,8-3.7,8-7.4  C36,16.4,31.7,13,26.5,13z"
     id="path8"
     style="fill-opacity:1;fill:#ffa801" /></svg>
