<!DOCTYPE svg PUBLIC "-//W3C//DTD SVG 1.1//EN" "http://www.w3.org/Graphics/SVG/1.1/DTD/svg11.dtd">
<svg version="1.1" id="Layer_2" xmlns="http://www.w3.org/2000/svg" xmlns:xlink="http://www.w3.org/1999/xlink" x="0px" y="0px"
	 viewBox="0 0 48 48" style="enable-background:new 0 0 48 48;" xml:space="preserve">
<style type="text/css">
	.st0{fill:#FFFFFF;}
</style>
<ellipse class="st0" cx="18.5" cy="28" rx="6.5" ry="5"/>
<path class="st0" d="M24,0C10.7,0,0,10.7,0,24s10.7,24,24,24s24-10.7,24-24S37.3,0,24,0z M27.3,31c-1.4,2.9-4.8,5-8.8,5
	c-2.2,0-4.2-0.6-5.8-1.7L9,37l1.8-4.4C9.7,31.3,9,29.7,9,28c0-3.1,2-5.7,5-7.1c0-0.1,0-0.3,0-0.4C14,14.7,19.6,10,26.5,10
	c1.9,0,3.7,0.4,5.3,1L36,8l-1.7,4.3c2.9,1.9,4.7,4.9,4.7,8.2C39,26.1,33.8,30.6,27.3,31z"/>
<path class="st0" d="M26.5,13c-5.1,0-9.2,3.1-9.5,7.1c0.5-0.1,1-0.1,1.5-0.1c5.2,0,9.4,3.5,9.5,7.9c4.5-0.6,8-3.7,8-7.4
	C36,16.4,31.7,13,26.5,13z"/>
</svg>
