<?xml version="1.0" encoding="UTF-8" standalone="no"?>
<svg
   xmlns:dc="http://purl.org/dc/elements/1.1/"
   xmlns:cc="http://creativecommons.org/ns#"
   xmlns:rdf="http://www.w3.org/1999/02/22-rdf-syntax-ns#"
   xmlns:svg="http://www.w3.org/2000/svg"
   xmlns="http://www.w3.org/2000/svg"
   xmlns:sodipodi="http://sodipodi.sourceforge.net/DTD/sodipodi-0.dtd"
   xmlns:inkscape="http://www.inkscape.org/namespaces/inkscape"
   version="1.1"
   id="Layer_1"
   x="0px"
   y="0px"
   viewBox="0 0 36 36"
   style="enable-background:new 0 0 36 36;"
   xml:space="preserve"
   sodipodi:docname="BackButtonWhite.svg"
   inkscape:version="0.92.2 (5c3e80d, 2017-08-06)"><metadata
     id="metadata11"><rdf:RDF><cc:Work
         rdf:about=""><dc:format>image/svg+xml</dc:format><dc:type
           rdf:resource="http://purl.org/dc/dcmitype/StillImage" /></cc:Work></rdf:RDF></metadata><defs
     id="defs9" /><sodipodi:namedview
     pagecolor="#ffffff"
     bordercolor="#666666"
     borderopacity="1"
     objecttolerance="10"
     gridtolerance="10"
     guidetolerance="10"
     inkscape:pageopacity="0"
     inkscape:pageshadow="2"
     inkscape:window-width="1920"
     inkscape:window-height="1017"
     id="namedview7"
     showgrid="false"
     inkscape:zoom="18.541911"
     inkscape:cx="5.8385395"
     inkscape:cy="18.884884"
     inkscape:window-x="1592"
     inkscape:window-y="-8"
     inkscape:window-maximized="1"
     inkscape:current-layer="Layer_1" /><path
     d="M33.3,0H2.7C1.2,0,0,1.2,0,2.7v30.6C0,34.8,1.2,36,2.7,36h30.6c1.5,0,2.7-1.2,2.7-2.7V2.7  C36,1.2,34.8,0,33.3,0z M27,19H12l6.5,6.5c0.3,0.3,0.4,0.8,0.2,1.2l0,0c-0.3,0.6-1.2,0.8-1.7,0.3l-9-9l9-9c0.5-0.5,1.4-0.4,1.7,0.3  l0,0c0.2,0.4,0.1,0.9-0.2,1.2L12,17h15c0.6,0,1,0.4,1,1C28,18.6,27.6,19,27,19z"
     id="path4"
     fill="#ffffff" /></svg>
