<?xml version="1.0" encoding="UTF-8" standalone="no"?>
<svg
   xmlns:dc="http://purl.org/dc/elements/1.1/"
   xmlns:cc="http://creativecommons.org/ns#"
   xmlns:rdf="http://www.w3.org/1999/02/22-rdf-syntax-ns#"
   xmlns:svg="http://www.w3.org/2000/svg"
   xmlns="http://www.w3.org/2000/svg"
   xmlns:sodipodi="http://sodipodi.sourceforge.net/DTD/sodipodi-0.dtd"
   xmlns:inkscape="http://www.inkscape.org/namespaces/inkscape"
   version="1.1"
   id="Layer_1"
   x="0px"
   y="0px"
   viewBox="0 0 15 15"
   xml:space="preserve"
   sodipodi:docname="Magnifier.svg"
   width="15"
   height="15"
   inkscape:version="0.92.2 (5c3e80d, 2017-08-06)"><metadata
     id="metadata11"><rdf:RDF><cc:Work
         rdf:about=""><dc:format>image/svg+xml</dc:format><dc:type
           rdf:resource="http://purl.org/dc/dcmitype/StillImage" /></cc:Work></rdf:RDF></metadata><defs
     id="defs9" /><sodipodi:namedview
     pagecolor="#ffffff"
     bordercolor="#666666"
     borderopacity="1"
     objecttolerance="10"
     gridtolerance="10"
     guidetolerance="10"
     inkscape:pageopacity="0"
     inkscape:pageshadow="2"
     inkscape:window-width="1920"
     inkscape:window-height="1017"
     id="namedview7"
     showgrid="false"
     inkscape:zoom="14.75"
     inkscape:cx="-31.351271"
     inkscape:cy="5.2250002"
     inkscape:window-x="1592"
     inkscape:window-y="-8"
     inkscape:window-maximized="1"
     inkscape:current-layer="Layer_1" /><style
     type="text/css"
     id="style2">
	.Mask{fill:#707070;}
</style><path
     class="Mask"
     d="M 8.1290432,0.12115511 C 6.0260072,0.44726681 4.2465151,2.0778251 3.7611991,4.0344951 3.2758831,5.8281093 3.5994271,7.4586676 4.5700591,8.7631143 L 0.36398701,13.002566 c -0.48531601,0.489168 -0.48531601,1.141391 0,1.630558 v 0 c 0.48531601,0.489168 1.13240399,0.489168 1.61772009,0 l 4.2060721,-4.239451 c 1.294176,0.815279 2.911896,1.141391 4.6913878,0.652223 1.941264,-0.489167 3.558984,-2.2827817 4.0443,-4.4025075 0.647088,-3.9133401 -2.911896,-7.33751249 -6.7944238,-6.52223339 z m 1.132404,9.62029419 c -2.264808,0 -4.0443001,-1.7936142 -4.0443001,-4.0763958 0,-2.2827817 1.7794921,-4.0763959 4.0443001,-4.0763959 2.2648078,0 4.0442998,1.7936142 4.0442998,4.0763959 0,2.2827816 -1.779492,4.0763958 -4.0442998,4.0763958 z"
     id="path4"
     inkscape:connector-curvature="0"
     style="fill:#707070;stroke-width:1.62412655;fill-opacity:1" /></svg>
