<svg xmlns="http://www.w3.org/2000/svg" viewBox="0 0 72 72">
  <path
     class="cls-1"
     d="M22.06,36.57l.9,4.81H18.14l.74-3.87q.59-3.12,1-5.91c.28-1.85.52-3.69.7-5.5C21,29.81,21.46,33.3,22.06,36.57ZM50.64,23.66h-.57v9.88c1.68,0,2.84-.33,3.48-1a5.36,5.36,0,0,0,1-3.67,6.68,6.68,0,0,0-.94-3.95A3.46,3.46,0,0,0,50.64,23.66ZM72,5.4V66.6A5.42,5.42,0,0,1,66.6,72H5.4A5.42,5.42,0,0,1,0,66.6V5.4A5.42,5.42,0,0,1,5.4,0H66.6A5.42,5.42,0,0,1,72,5.4Zm-43.29,45L22.24,20.24H19.08L12.51,50.4h3.91l1.15-5.88h6l1.13,5.88Zm13.88-7.6a9.52,9.52,0,0,0-.9-4.35,17.82,17.82,0,0,0-3.38-4.36c-.89-.9-1.63-1.67-2.19-2.3a10.82,10.82,0,0,1-1.22-1.57,4.86,4.86,0,0,1-.73-2.71,4,4,0,0,1,1-2.87,3.34,3.34,0,0,1,2.62-1.13,6,6,0,0,1,3.34,1.32v-4a8.83,8.83,0,0,0-4.14-1,6.32,6.32,0,0,0-5,2.09,8.12,8.12,0,0,0-1.84,5.61,8.9,8.9,0,0,0,.94,4.33,12.37,12.37,0,0,0,1.5,2.06c.68.78,1.53,1.68,2.56,2.69.66.66,1.22,1.27,1.66,1.81a11.9,11.9,0,0,1,1,1.43,6,6,0,0,1,.73,2.95,4.51,4.51,0,0,1-.94,3,3.22,3.22,0,0,1-2.6,1.1,6.86,6.86,0,0,1-3.94-1.58v4a7,7,0,0,0,4.43,1.42,6.46,6.46,0,0,0,5.06-2.21A8.48,8.48,0,0,0,42.59,42.8ZM58.74,28.45c0-2.85-.58-4.94-1.75-6.25s-3.05-2-5.63-2H46V50.4h4.06V37a13,13,0,0,0,5.14-.8C57.57,35.05,58.74,32.46,58.74,28.45Z"
     id="path8"
     style="fill:#4dae89;fill-opacity:1" />
</svg>
