<svg xmlns="http://www.w3.org/2000/svg" viewBox="0 0 72 72">
  <defs
     id="defs4">
    <style
       id="style1">
        .cls-1 {
        fill: #4dae89;
        }
    </style>
  </defs>
  <path
     class="cls-1"
     d="M66.6,0H5.4C2.4,0,0,2.4,0,5.4v61.2c0,3,2.4,5.4,5.4,5.4h61.2c3,0,5.4-2.4,5.4-5.4V5.4
		C72,2.4,69.6,0,66.6,0z M32,16.8c1.2-1.4,2.9-2.1,5-2.1c1.4,0,2.8,0.3,4.1,1v4c-1.2-0.9-2.4-1.3-3.3-1.3c-1.1,0-1.9,0.4-2.6,1.1
		c-0.7,0.7-1,1.7-1,2.9c0,1.1,0.2,2,0.7,2.7c0.2,0.4,0.7,0.9,1.2,1.6c0.6,0.6,1.3,1.4,2.2,2.3c1.7,1.7,2.8,3.1,3.4,4.4
		c0.6,1.2,0.9,2.6,0.9,4.4c0,2.3-0.7,4.3-2,5.8c-1.3,1.5-3,2.2-5.1,2.2c-1.7,0-3.2-0.5-4.4-1.4v-4c1.4,1.1,2.8,1.6,3.9,1.6
		c1.1,0,2-0.4,2.6-1.1c0.6-0.7,0.9-1.7,0.9-3c0-1.1-0.2-2.1-0.7-2.9c-0.2-0.4-0.6-0.9-1-1.4c-0.4-0.5-1-1.1-1.7-1.8
		c-1-1-1.9-1.9-2.6-2.7c-0.7-0.8-1.2-1.5-1.5-2.1c-0.6-1.1-0.9-2.6-0.9-4.3C30.2,20,30.8,18.1,32,16.8z M16.4,45.2h-3.9l6.6-30.2
		h3.2l6.5,30.2h-4l-1.1-5.9h-6L16.4,45.2z M27.9,50.6c-0.5-0.4-1-0.6-1.6-0.6c-0.7,0-1.3,0.3-1.7,1c-0.4,0.7-0.6,1.6-0.6,2.7
		c0,1.1,0.2,2,0.6,2.7c0.4,0.6,0.9,1,1.6,1c0.6,0,1.2-0.2,1.7-0.6v1.9c-0.6,0.3-1.3,0.5-2,0.5c-1.3,0-2.2-0.5-3-1.4
		c-0.7-0.9-1.1-2.2-1.1-3.8c0-1.8,0.4-3.2,1.1-4.2c0.8-1,1.8-1.5,3.2-1.5c0.6,0,1.2,0.1,1.8,0.4V50.6z M35.1,57.8
		c-0.7,1-1.6,1.4-2.8,1.4c-1.2,0-2.1-0.5-2.8-1.4c-0.6-0.9-1-2.2-1-3.9c0-1.8,0.3-3.1,1-4.1c0.7-1,1.6-1.5,2.8-1.5
		c1.2,0,2.1,0.5,2.8,1.4c0.6,0.9,0.9,2.3,0.9,4C36.1,55.5,35.8,56.8,35.1,57.8z M41.8,59L41,56.4c-0.3-1-0.7-1.5-1.2-1.5h-0.3v4h-2
		V48.5h2.9c2.1,0,3.2,0.9,3.2,2.8c0,1.4-0.6,2.4-1.9,2.8v0c0.6,0.2,1,0.8,1.3,1.9l0.9,3H41.8z M50.2,59h-5V48.5H50v1.7h-2.8v2.6h2.6
		v1.7h-2.6v2.7h3V59z M55.2,31.1c-1.2,0.5-2.9,0.8-5.1,0.8v13.4H46V15.1h5.4c2.6,0,4.5,0.7,5.6,2c1.2,1.3,1.8,3.4,1.8,6.2
		C58.7,27.3,57.6,29.9,55.2,31.1z"/>
  <path
    class="cls-1"
    d="M32.4,50.1c-1.1,0-1.7,1.2-1.7,3.7c0,2.4,0.6,3.6,1.7,3.6c0.5,0,0.9-0.3,1.2-0.9c0.3-0.6,0.4-1.5,0.4-2.7C34,51.3,33.5,50.1,32.4,50.1z"/>
  <path
    class="cls-1"
    d="M20.6,20.9c-0.2,1.8-0.4,3.6-0.7,5.5c-0.3,1.9-0.6,3.8-1,5.9l-0.7,3.9H23l-0.9-4.8C21.5,28.1,21,24.6,20.6,20.9z"/>
  <path
    class="cls-1"
    d="M40.2,50.2h-0.6v3h0.6c0.4,0,0.7-0.2,1-0.5c0.2-0.3,0.4-0.7,0.4-1.1c0-0.4-0.1-0.8-0.3-1.1C41,50.3,40.6,50.2,40.2,50.2z"/>
  <path
    class="cls-1"
    d="M32.4,50.1c-1.1,0-1.7,1.2-1.7,3.7c0,2.4,0.6,3.6,1.7,3.6c0.5,0,0.9-0.3,1.2-0.9c0.3-0.6,0.4-1.5,0.4-2.7C34,51.3,33.5,50.1,32.4,50.1z"/>
  <path
    class="cls-1"
    d="M50.6,18.5h-0.6v9.9c1.7,0,2.8-0.3,3.5-1c0.7-0.7,1-1.9,1-3.7c0-1.8-0.3-3.1-0.9-3.9C53,18.9,52,18.5,50.6,18.5z"/>
</svg>
