<svg xmlns="http://www.w3.org/2000/svg" viewBox="0 0 72 72">
    <path id="_x32_" fill="#4dae89" d="M22.2,32.3c-0.6,0.7-1.7,1.1-3.3,1.1v-10c0,0,0.1,0,0.2,0h0.2h0.3c2.4,0,3.5,1.6,3.5,4.9
	C23.2,30.2,22.9,31.5,22.2,32.3z M72,5.4v61.2c0,3-2.4,5.4-5.4,5.4H5.4c-3,0-5.4-2.4-5.4-5.4V5.4C0,2.4,2.4,0,5.4,0h61.2
	C69.6,0,72,2.4,72,5.4z M27.6,42c0-2-0.3-3.5-0.9-4.6c-0.6-1-1.7-1.9-3.4-2.5c1.4-0.5,2.4-1.3,3-2.3c0.6-1,0.8-2.5,0.8-4.6
	c0-5.4-2.2-8.1-6.5-8.1h-5.5v30.3h5.3C25.2,50.3,27.6,47.6,27.6,42z M40.7,46.9h-6.7V20.1H30v30.3h10.7V46.9z M47.8,46.8l9.1-26.7
	H43.6v3.5h8.1l-9.2,26.8h13.9v-3.6H47.8z M19,36.6v10.2c1.7,0,2.8-0.4,3.5-1.1c0.6-0.7,1-2,1-3.9c0-1.9-0.3-3.3-1-4.1
	C21.7,37,20.6,36.6,19,36.6z"/>
</svg>
