<svg xmlns="http://www.w3.org/2000/svg" viewBox="0 0 72 72">
  <path
     d="M43.46,37.79a4.43,4.43,0,0,1,1.34,3.47,4.63,4.63,0,0,1-1.34,3.55,5.26,5.26,0,0,1-3.76,1.26H30.31V36.58H39.7A5.35,5.35,0,0,1,43.46,37.79Zm-1.29-6.11a3.89,3.89,0,0,0,1.27-3.13,3.94,3.94,0,0,0-1.15-3.23A5.14,5.14,0,0,0,39,24.39H30.31v8.38H39A4.73,4.73,0,0,0,42.17,31.68ZM72,5.4V66.6A5.42,5.42,0,0,1,66.6,72H5.4A5.42,5.42,0,0,1,0,66.6V5.4A5.42,5.42,0,0,1,5.4,0H66.6A5.42,5.42,0,0,1,72,5.4ZM50.11,42a8.79,8.79,0,0,0-1.44-5.17,6.65,6.65,0,0,0-4.25-2.65V34a7.2,7.2,0,0,0,3.21-2.53,6.76,6.76,0,0,0,1.12-3.93,6.65,6.65,0,0,0-2.46-5.65,10.55,10.55,0,0,0-6.55-1.87H25V50.4H38.94A17.14,17.14,0,0,0,44,49.74,10.14,10.14,0,0,0,47.48,48a6.63,6.63,0,0,0,2-2.67A8.59,8.59,0,0,0,50.11,42Z"
     fill="#4dae89" />
</svg>
