<svg xmlns="http://www.w3.org/2000/svg" viewBox="0 0 72 72">
  <path
     d="M38,36.57l.9,4.81H34.05l.74-3.87q.59-3.12,1-5.91c.29-1.85.53-3.69.71-5.5C36.89,29.81,37.37,33.3,38,36.57ZM72,5.4V66.6A5.42,5.42,0,0,1,66.6,72H5.4A5.42,5.42,0,0,1,0,66.6V5.4A5.42,5.42,0,0,1,5.4,0H66.6A5.42,5.42,0,0,1,72,5.4Zm-27.39,45L38.15,20.24H35L28.44,50.33,22.88,35.09l5.58-14.85h-4.1l-1.93,6.22-.28.87c-.19.63-.38,1.25-.55,1.88s-.34,1.27-.48,1.93a31.26,31.26,0,0,0-1.47-5.06l-2.09-5.84H13.62L19,35.09,13.27,50.4h4.29l1.74-5.47.35-1.13.69-2.15a14.2,14.2,0,0,0,.52-2.5,22.18,22.18,0,0,0,.53,2.42c.25.91.57,1.94,1,3.09l2,5.74h8l1.15-5.88h6l1.13,5.88ZM57.86,20.24H47V50.4h4.06V36.65h6.13V33.21H51.06V23.68h6.8Z"
     fill="#4dae89"/>
</svg>
