<svg xmlns="http://www.w3.org/2000/svg" viewBox="0 0 72 72">
  <path
     d="M66.6,0H5.4A5.42,5.42,0,0,0,0,5.4V66.6A5.42,5.42,0,0,0,5.4,72H66.6A5.42,5.42,0,0,0,72,66.6V5.4A5.42,5.42,0,0,0,66.6,0ZM27.45,50.4l-.69-10.22q0-.78-.06-1.35c0-.37,0-.69,0-.93l-.18-4-.1-3.71a1.26,1.26,0,0,0,0-.16,2.47,2.47,0,0,0,0-.34l-.09.6c-.11.72-.2,1.34-.29,1.87s-.16,1-.22,1.35l-.51,2.75-.19,1L22.51,50.4H19.78L17.4,39.05q-.48-2.25-.87-4.56c-.25-1.54-.48-3.15-.69-4.84L14.67,50.4H10.85l2.47-30.12H16.8l2.65,12.29c.32,1.54.62,3.07.89,4.62s.51,3.15.73,4.84q0-.33.06-.51a1.1,1.1,0,0,1,0-.27l.56-3.45.51-3.28.45-2.16,2.36-12.08h3.51L31.33,50.4Zm13.87,0H38.1L32.28,20.28h4L38.1,31.4l.31,2,.64,4.37c.11.74.2,1.42.29,2s.15,1.16.22,1.66L39.75,43c0-.3.08-.57.1-.8s0-.43.08-.59l.53-3.49.68-4.58c.06-.42.13-.8.18-1.15s.12-.66.17-.94l1.95-11.12h3.79Zm19.83-26a6.21,6.21,0,0,0-2.61-.76,4.31,4.31,0,0,0-2.48.71,5.22,5.22,0,0,0-1.71,2.2,14,14,0,0,0-1,3.75A39.73,39.73,0,0,0,53,35.69q0,11.16,5.71,11.16a6.16,6.16,0,0,0,2.4-.62V50a6.55,6.55,0,0,1-3.28.82q-9.13,0-9.14-14.94,0-8.07,2.23-12a7.36,7.36,0,0,1,6.84-3.94,6.94,6.94,0,0,1,3.35.9Z"
     fill="#4dae89" />
</svg>
