<svg xmlns="http://www.w3.org/2000/svg" viewBox="0 0 72 72">
  <path
     d="M52,47,63,36l1,1L53,48ZM47,35v6c0,2.76-4.92,5-11,5s-11-2.24-11-5V35c0-2.76,4.92-5,11-5S47,32.24,47,35Zm-1,0H35l3.83-3.83A23.15,23.15,0,0,0,36,31c-5.52,0-10,1.79-10,4s4.48,4,10,4S46,37.21,46,35Zm15-1L50,45l1,1L62,35ZM72,5.4V66.6A5.42,5.42,0,0,1,66.6,72H5.4A5.42,5.42,0,0,1,0,66.6V5.4A5.42,5.42,0,0,1,5.4,0H66.6A5.42,5.42,0,0,1,72,5.4ZM45,24h8l-8-8ZM67,36l-5-5-9,9V25H44V16H20a1,1,0,0,0-1,1V55a1,1,0,0,0,1,1H52a1,1,0,0,0,1-1V52H48V48l2,2h3Z"
     fill="#4dae89"/>
</svg>
