<svg xmlns="http://www.w3.org/2000/svg" viewBox="0 0 72 72">
  <path
     d="M66.6,0H5.4A5.42,5.42,0,0,0,0,5.4V66.6A5.42,5.42,0,0,0,5.4,72H66.6A5.42,5.42,0,0,0,72,66.6V5.4A5.42,5.42,0,0,0,66.6,0ZM28.75,50.4H25.59l-2.13-13s-.05-.26-.1-.64-.13-.92-.23-1.62l-.41-3c0-.24-.07-.59-.13-1.06s-.12-1.06-.18-1.77L22.31,28c0,.3,0,.56-.08.78s-.05.4-.06.55c-.06.85-.12,1.52-.16,2s-.08.76-.09.87l-.41,2.89c-.09.66-.17,1.18-.22,1.56s-.09.61-.11.7L19,50.4H15.71L10.49,20.24h3.93l2,14,.33,2.07c.16,1.12.27,2.14.35,3.06l.22,2.56c0,.07,0,.19,0,.35s0,.39.05.65l.1-1c.16-1.7.32-3.27.5-4.7s.37-2.76.58-4l2.16-13h3.13l2,12.68c.3,1.87.55,3.61.75,5.21s.37,3.14.5,4.59c.13-1.53.28-3,.44-4.45s.34-2.84.52-4.22l.29-2,1.74-11.8h3.89Zm11.78,0H36.47V20.24h4.06Zm18.69,0h-3.8L50.88,36.83c-.42-1.27-.81-2.56-1.18-3.89s-.71-2.72-1-4.18c0-.18-.07-.4-.13-.66s-.13-.56-.21-.9c0,.34.07.63.1.87s.05.44.06.61l.21,3.07L49,35.48c0,.21,0,.46,0,.76s0,.64,0,1L49.2,50.4h-4V20.24H49l4,12a111.37,111.37,0,0,1,3.11,10.88q-.49-3.49-.73-6.32c-.15-1.89-.23-3.67-.23-5.34V20.24h4.06Z"
     fill="#4dae89" />
</svg>
