<svg xmlns="http://www.w3.org/2000/svg" viewBox="0 0 72 72">
  <path
     d="M42.84,24.91a6.68,6.68,0,0,1,.93,3.95,5.37,5.37,0,0,1-1,3.67c-.64.68-1.8,1-3.48,1V23.66h.57A3.46,3.46,0,0,1,42.84,24.91ZM72,5.4V66.6A5.42,5.42,0,0,1,66.6,72H5.4A5.42,5.42,0,0,1,0,66.6V5.4A5.42,5.42,0,0,1,5.4,0H66.6A5.42,5.42,0,0,1,72,5.4ZM32.88,20.24H29L27.25,32l-.29,2c-.19,1.38-.36,2.79-.52,4.22s-.31,2.92-.44,4.45c-.13-1.45-.3-3-.5-4.59s-.45-3.34-.75-5.21l-2-12.68H19.59L17.43,33.29c-.21,1.21-.4,2.53-.58,4s-.34,3-.5,4.7l-.1,1c0-.26,0-.48-.05-.65s0-.28,0-.35l-.22-2.56c-.08-.92-.19-1.94-.35-3.06l-.33-2.07-2-14H9.28L14.5,50.4h3.26l2.2-13a5.21,5.21,0,0,0,.12-.7c.05-.38.13-.9.22-1.56l.41-2.89c0-.11,0-.4.08-.87s.11-1.15.17-2c0-.15,0-.33.06-.55s.05-.48.08-.78l.1,1.25c.06.71.12,1.31.18,1.77s.1.82.13,1.06l.41,3c.1.7.18,1.24.23,1.62s.09.59.1.64l2.13,13h3.16ZM48,28.45c0-2.85-.58-4.94-1.76-6.25s-3-2-5.62-2H35.26V50.4h4.06V37a13,13,0,0,0,5.14-.8Q48,34.46,48,28.45Zm14-8.21H51.12V50.4h4.06V36.65h6.13V33.21H55.18V23.68H62Z"
     fill="#4dae89"/>
</svg>
