<svg xmlns="http://www.w3.org/2000/svg" width="36" height="36">
  <path d="m33.3,0l-30.6,0c-1.5,0 -2.7,1.2 -2.7,2.7l0,30.6c0,1.5 1.2,2.7 2.7,2.7l30.6,0c1.5,0 2.7,-1.2 2.7,-2.7l0,-30.6c0,-1.5 -1.2,-2.7 -2.7,-2.7zm-3.4,18.4c-0.8,5.9 -4.5,10 -10,13l-1.9,1l-1.9,-1c-5.5,-3 -9.1,-7.2 -10,-13c-0.2,-1.3 -0.2,-2.7 -0.1,-4l0.5,-5.1c3.2,0 4.9,-1.6 5.4,-4.8l12,0c0.6,3.2 2.2,4.8 5.4,4.8l0.5,5.1c0.2,1.4 0.2,2.7 0.1,4zm-2.3,-7.3c-2.1,-0.5 -4.2,-1.7 -5.3,-4.6l-8.7,0c-1.1,2.9 -3.2,4.2 -5.3,4.6l-0.3,3.3c0,1.4 0,2.6 0.1,3.6c0.7,4.9 3.7,8.6 9.1,11.6l0.8,0.4l0.8,-0.4c5.4,-2.9 8.4,-6.7 9.1,-11.6c0.2,-1.1 0.2,-2.2 0,-3.6l-0.3,-3.3zm-1.7,6.6c-0.6,4.1 -3.1,7.2 -7.8,9.7l-0.1,0.1l0,-19l3.2,0c0.9,2 2.5,3.3 4.5,4l0.2,2.2c0.1,1.2 0.1,2.1 0,3z" fill="#4dae89"/>
</svg>